<svg version="1.2" xmlns="http://www.w3.org/2000/svg" viewBox="0 0 512 512" width="512" height="512">
	<title>busylight-green</title>
	<style>
		.s0 { fill: #ffffff } 
		.s1 { fill: #00ff00 } 
	</style>
	<g id="Background">
		<path id="Path 0" class="s0" d="m239 0h34v65h-34v-32.5zm-239 239h65v34h-65v-17zm447 0h65v34h-65v-17zm-208 208h34v65h-34v-32.5zm-153-384c0.8 0 11.5 10 23.8 22.3c12.2 12.2 22.2 22.9 22.2 23.7c0 0.8-4.8 6.3-10.8 12.3c-5.9 5.9-11.4 10.7-12.2 10.7c-0.8 0-11.5-10-23.8-22.3c-12.2-12.2-22.3-22.9-22.4-23.7c-0.2-0.8 4.7-6.3 10.7-12.2c6-6 11.6-10.8 12.5-10.8zm340 0c0.8 0 6.3 4.8 12.3 10.8c5.9 5.9 10.7 11.4 10.7 12.2c0 0.8-10 11.5-22.3 23.8c-12.2 12.2-22.9 22.2-23.7 22.2c-0.8 0-6.3-4.8-12.3-10.8c-5.9-5.9-10.8-11.4-10.9-12.2c-0.2-0.8 9.8-11.5 22.2-23.7c12.4-12.3 23.2-22.3 24-22.3zm-166 32.5c11.8 0.2 19.7 1 27.5 2.5c6.1 1.2 15.1 3.5 20 5.2c4.9 1.6 13.5 5.2 19 7.8c5.5 2.6 13.4 7 17.5 9.7c4.1 2.7 11.7 8.4 16.8 12.6c5 4.2 12.4 11.4 16.3 16c3.8 4.5 9.7 12.3 13.1 17.2c3.3 4.9 8.2 13.5 10.8 19c2.6 5.5 6.4 14.9 8.3 21c1.9 6.1 4.3 15.5 5.3 21c1.4 7.6 1.9 14.6 1.9 29c-0.1 15.4-0.5 21.1-2.3 30c-1.2 6.1-3.7 15.5-5.5 21c-1.9 5.5-5 13.4-6.9 17.5c-1.9 4.1-6 11.6-9 16.5c-3.1 4.9-9.2 13.3-13.5 18.5c-4.4 5.2-11.8 12.8-16.4 16.8c-4.6 4-12.5 10-17.4 13.3c-4.9 3.4-13.5 8.2-19 10.9c-5.5 2.6-14.3 6.2-19.5 7.9c-5.2 1.7-14.4 4.1-20.5 5.3c-9.1 1.9-14.4 2.2-30.5 2.2c-16 0-21.5-0.3-30.5-2.1c-6.1-1.2-15.7-3.8-21.5-5.8c-5.8-2-14.6-5.6-19.5-8c-4.9-2.4-12.4-6.5-16.5-9.2c-4.1-2.7-11.7-8.4-16.8-12.6c-5-4.2-12.4-11.4-16.3-16c-3.8-4.5-9.7-12.3-13.1-17.2c-3.3-4.9-8.2-13.5-10.8-19c-2.6-5.5-6.2-14.3-7.9-19.5c-1.8-5.2-4.2-14.4-5.4-20.5c-1.8-9-2.1-14.5-2.1-30.5c0-16 0.3-21.5 2.1-30.5c1.2-6.1 3.6-15.3 5.4-20.5c1.7-5.2 5.3-14 7.9-19.5c2.7-5.5 7-13.4 9.7-17.5c2.7-4.1 8.4-11.7 12.6-16.8c4.2-5 11.2-12.2 15.4-15.8c4.3-3.7 11-8.9 14.8-11.6c3.8-2.7 10.6-6.9 15-9.3c4.4-2.4 12.3-6 17.5-8.1c5.2-2 12.2-4.4 15.5-5.4c3.3-0.9 10.3-2.5 15.5-3.4c5.2-0.9 11.1-1.8 13-2c1.9-0.2 10.9-0.3 20-0.1zm-151 284.5c0.8 0 6.3 4.8 12.3 10.8c5.9 5.9 10.7 11.4 10.7 12.2c0 0.8-10 11.5-22.3 23.8c-12.2 12.2-22.9 22.2-23.7 22.2c-0.8 0-6.3-4.8-12.3-10.8c-5.9-5.9-10.8-11.4-10.9-12.2c-0.2-0.8 9.8-11.5 22.2-23.7c12.4-12.3 23.2-22.3 24-22.3zm294 0c0.8 0 11.5 10 23.8 22.3c12.2 12.2 22.2 22.9 22.2 23.7c0 0.8-4.8 6.3-10.8 12.3c-5.9 5.9-11.4 10.7-12.2 10.7c-0.8 0-11.5-10-23.8-22.3c-12.2-12.2-22.3-22.9-22.4-23.7c-0.2-0.8 4.7-6.3 10.7-12.2c6-6 11.6-10.8 12.5-10.8z" />
		<path id="Path 1" class="s1" d="m254 129.1c5.8 0 14.8 0.6 20 1.4c5.2 0.7 13.4 2.5 18.3 3.9c4.8 1.5 12.4 4.3 16.9 6.4c4.6 2.1 12.4 6.4 17.3 9.6c5.5 3.6 13 9.8 19.1 16c6.2 6.1 12.4 13.6 16 19.1c3.2 4.9 7.5 12.7 9.6 17.3c2.1 4.5 4.9 12.1 6.4 17c1.4 4.8 3.2 13 3.9 18.2c0.8 5.2 1.5 13.3 1.5 18c0 4.7-0.7 12.8-1.5 18c-0.7 5.2-2.5 13.4-3.9 18.3c-1.5 4.8-4.3 12.4-6.4 17c-2.1 4.5-6.4 12.3-9.6 17.2c-3.5 5.4-9.8 13-16 19.1c-6.4 6.5-13.6 12.4-19.6 16.3c-5.2 3.4-13.6 7.9-18.5 10.1c-4.9 2.1-13.1 5-18 6.3c-4.9 1.4-13.5 3-19 3.7c-5.8 0.8-14.6 1.1-21 0.7c-6.1-0.3-14.6-1.3-19-2.2c-4.4-0.9-11.4-2.8-15.5-4.1c-4.1-1.4-11.6-4.5-16.5-7c-4.9-2.5-12.5-7.1-16.9-10.2c-4.3-3.1-11.3-9.1-15.5-13.3c-4.2-4.2-10.2-11.2-13.3-15.5c-3.1-4.4-7.7-12-10.2-16.9c-2.5-4.9-5.6-12.4-7-16.5c-1.3-4.1-3.3-11.3-4.3-16c-1.3-6.3-1.8-12.8-1.8-25c0-12.2 0.5-18.7 1.8-25c1-4.7 3-11.9 4.3-16c1.4-4.1 4.5-11.6 7-16.5c2.5-4.9 7.1-12.5 10.2-16.9c3.1-4.3 8.6-10.9 12.2-14.5c3.6-3.7 9.9-9.2 14-12.3c4.1-3.1 10.2-7.2 13.5-9.1c3.3-1.9 9.8-5.1 14.5-7c4.7-1.9 11.4-4.3 15-5.2c3.6-1 9.9-2.3 14-3c4.1-0.7 12.2-1.3 18-1.4z" />
	</g>
</svg>